<?xml version="1.0" encoding="UTF-8"?>
<mxfile host="app.diagrams.net" modified="2024-01-01T00:00:00.000Z" agent="5.0" etag="abc123" version="21.0.0">
  <diagram name="Message Flow" id="message-flow-diagram">
    <mxGraphModel dx="1426" dy="794" grid="1" gridSize="10" guides="1" tooltips="1" connect="1" arrows="1" fold="1" page="1" pageScale="1" pageWidth="1169" pageHeight="827" math="0" shadow="0">
      <root>
        <mxCell id="0" />
        <mxCell id="1" parent="0" />

        <!-- Client -->
        <mxCell id="client" value="Client Application" style="rounded=1;whiteSpace=wrap;html=1;fillColor=#dae8fc;strokeColor=#6c8ebf;" vertex="1" parent="1">
          <mxGeometry x="40" y="380" width="120" height="60" as="geometry" />
        </mxCell>

        <!-- WebSocket Gateway -->
        <mxCell id="gateway" value="WebSocket Gateway" style="rounded=1;whiteSpace=wrap;html=1;fillColor=#fff2cc;strokeColor=#d6b656;" vertex="1" parent="1">
          <mxGeometry x="220" y="380" width="120" height="60" as="geometry" />
        </mxCell>

        <!-- Middleware Chain -->
        <mxCell id="middleware" value="Middleware Chain&#xa;• Auth&#xa;• Rate Limit&#xa;• Guardrails" style="rounded=1;whiteSpace=wrap;html=1;fillColor=#f8cecc;strokeColor=#b85450;" vertex="1" parent="1">
          <mxGeometry x="400" y="365" width="120" height="90" as="geometry" />
        </mxCell>

        <!-- Router -->
        <mxCell id="router" value="Model Router&#xa;• Strategy Selection&#xa;• Load Balancing" style="rounded=1;whiteSpace=wrap;html=1;fillColor=#e1d5e7;strokeColor=#9673a6;" vertex="1" parent="1">
          <mxGeometry x="580" y="370" width="120" height="80" as="geometry" />
        </mxCell>

        <!-- Cache -->
        <mxCell id="cache" value="Semantic Cache&#xa;• Vector Search&#xa;• TTL Management" style="rounded=1;whiteSpace=wrap;html=1;fillColor=#d5e8d4;strokeColor=#82b366;" vertex="1" parent="1">
          <mxGeometry x="580" y="240" width="120" height="80" as="geometry" />
        </mxCell>

        <!-- Provider Adapters -->
        <mxCell id="adapters" value="Provider Adapters" style="rounded=1;whiteSpace=wrap;html=1;fillColor=#ffe6cc;strokeColor=#d79b00;" vertex="1" parent="1">
          <mxGeometry x="760" y="380" width="120" height="60" as="geometry" />
        </mxCell>

        <!-- Individual Providers -->
        <mxCell id="openai" value="OpenAI" style="ellipse;whiteSpace=wrap;html=1;fillColor=#f5f5f5;strokeColor=#666666;" vertex="1" parent="1">
          <mxGeometry x="940" y="300" width="80" height="40" as="geometry" />
        </mxCell>

        <mxCell id="anthropic" value="Anthropic" style="ellipse;whiteSpace=wrap;html=1;fillColor=#f5f5f5;strokeColor=#666666;" vertex="1" parent="1">
          <mxGeometry x="940" y="360" width="80" height="40" as="geometry" />
        </mxCell>

        <mxCell id="claude" value="Claude" style="ellipse;whiteSpace=wrap;html=1;fillColor=#f5f5f5;strokeColor=#666666;" vertex="1" parent="1">
          <mxGeometry x="940" y="420" width="80" height="40" as="geometry" />
        </mxCell>

        <mxCell id="huggingface" value="HuggingFace" style="ellipse;whiteSpace=wrap;html=1;fillColor=#f5f5f5;strokeColor=#666666;" vertex="1" parent="1">
          <mxGeometry x="940" y="480" width="80" height="40" as="geometry" />
        </mxCell>

        <!-- Embeddings -->
        <mxCell id="embeddings" value="Embeddings&#xa;Service" style="rounded=1;whiteSpace=wrap;html=1;fillColor=#d5e8d4;strokeColor=#82b366;" vertex="1" parent="1">
          <mxGeometry x="580" y="500" width="120" height="60" as="geometry" />
        </mxCell>

        <!-- Database -->
        <mxCell id="database" value="Database&#xa;• Conversations&#xa;• Metrics" style="cylinder;whiteSpace=wrap;html=1;fillColor=#f5f5f5;strokeColor=#666666;" vertex="1" parent="1">
          <mxGeometry x="400" y="490" width="100" height="80" as="geometry" />
        </mxCell>

        <!-- Monitoring -->
        <mxCell id="monitoring" value="Monitoring&#xa;• Jaeger&#xa;• Prometheus&#xa;• Grafana" style="rounded=1;whiteSpace=wrap;html=1;fillColor=#e6f3ff;strokeColor=#4d94ff;" vertex="1" parent="1">
          <mxGeometry x="400" y="200" width="120" height="80" as="geometry" />
        </mxCell>

        <!-- Arrows - Request Flow -->
        <mxCell id="arrow1" value="" style="endArrow=classic;html=1;exitX=1;exitY=0.5;exitDx=0;exitDy=0;entryX=0;entryY=0.5;entryDx=0;entryDy=0;" edge="1" parent="1" source="client" target="gateway">
          <mxGeometry width="50" height="50" relative="1" as="geometry" />
        </mxCell>

        <mxCell id="arrow2" value="" style="endArrow=classic;html=1;exitX=1;exitY=0.5;exitDx=0;exitDy=0;entryX=0;entryY=0.5;entryDx=0;entryDy=0;" edge="1" parent="1" source="gateway" target="middleware">
          <mxGeometry width="50" height="50" relative="1" as="geometry" />
        </mxCell>

        <mxCell id="arrow3" value="" style="endArrow=classic;html=1;exitX=1;exitY=0.5;exitDx=0;exitDy=0;entryX=0;entryY=0.5;entryDx=0;entryDy=0;" edge="1" parent="1" source="middleware" target="router">
          <mxGeometry width="50" height="50" relative="1" as="geometry" />
        </mxCell>

        <!-- Cache Check -->
        <mxCell id="arrow4" value="Check" style="endArrow=classic;startArrow=classic;html=1;exitX=0.5;exitY=0;exitDx=0;exitDy=0;entryX=0.5;entryY=1;entryDx=0;entryDy=0;dashed=1;" edge="1" parent="1" source="router" target="cache">
          <mxGeometry width="50" height="50" relative="1" as="geometry" />
        </mxCell>

        <mxCell id="arrow5" value="" style="endArrow=classic;html=1;exitX=1;exitY=0.5;exitDx=0;exitDy=0;entryX=0;entryY=0.5;entryDx=0;entryDy=0;" edge="1" parent="1" source="router" target="adapters">
          <mxGeometry width="50" height="50" relative="1" as="geometry" />
        </mxCell>

        <!-- Provider connections -->
        <mxCell id="arrow6" value="" style="endArrow=classic;html=1;exitX=1;exitY=0.25;exitDx=0;exitDy=0;entryX=0;entryY=0.5;entryDx=0;entryDy=0;" edge="1" parent="1" source="adapters" target="openai">
          <mxGeometry width="50" height="50" relative="1" as="geometry" />
        </mxCell>

        <mxCell id="arrow7" value="" style="endArrow=classic;html=1;exitX=1;exitY=0.5;exitDx=0;exitDy=0;entryX=0;entryY=0.5;entryDx=0;entryDy=0;" edge="1" parent="1" source="adapters" target="anthropic">
          <mxGeometry width="50" height="50" relative="1" as="geometry" />
        </mxCell>

        <mxCell id="arrow8" value="" style="endArrow=classic;html=1;exitX=1;exitY=0.5;exitDx=0;exitDy=0;entryX=0;entryY=0.5;entryDx=0;entryDy=0;" edge="1" parent="1" source="adapters" target="claude">
          <mxGeometry width="50" height="50" relative="1" as="geometry" />
        </mxCell>

        <mxCell id="arrow9" value="" style="endArrow=classic;html=1;exitX=1;exitY=0.75;exitDx=0;exitDy=0;entryX=0;entryY=0.5;entryDx=0;entryDy=0;" edge="1" parent="1" source="adapters" target="huggingface">
          <mxGeometry width="50" height="50" relative="1" as="geometry" />
        </mxCell>

        <!-- Embeddings connection -->
        <mxCell id="arrow10" value="Generate" style="endArrow=classic;startArrow=classic;html=1;exitX=0.5;exitY=1;exitDx=0;exitDy=0;entryX=0.5;entryY=0;entryDx=0;entryDy=0;dashed=1;" edge="1" parent="1" source="router" target="embeddings">
          <mxGeometry width="50" height="50" relative="1" as="geometry" />
        </mxCell>

        <!-- Database connections -->
        <mxCell id="arrow11" value="Store" style="endArrow=classic;html=1;exitX=0;exitY=0.75;exitDx=0;exitDy=0;entryX=1;entryY=0.5;entryDx=0;entryDy=0;dashed=1;" edge="1" parent="1" source="middleware" target="database">
          <mxGeometry width="50" height="50" relative="1" as="geometry" />
        </mxCell>

        <!-- Monitoring connections -->
        <mxCell id="arrow12" value="Trace" style="endArrow=classic;html=1;exitX=0.5;exitY=0;exitDx=0;exitDy=0;entryX=0.5;entryY=1;entryDx=0;entryDy=0;dashed=1;strokeColor=#4d94ff;" edge="1" parent="1" source="middleware" target="monitoring">
          <mxGeometry width="50" height="50" relative="1" as="geometry" />
        </mxCell>

        <!-- Response Flow (dotted lines) -->
        <mxCell id="response1" value="Stream Response" style="endArrow=classic;html=1;exitX=0;exitY=0.75;exitDx=0;exitDy=0;entryX=1;entryY=0.75;entryDx=0;entryDy=0;strokeColor=#00cc00;strokeWidth=2;dashed=1;" edge="1" parent="1" source="adapters" target="gateway">
          <mxGeometry width="50" height="50" relative="1" as="geometry">
            <mxPoint x="500" y="450" as="sourcePoint" />
            <mxPoint x="550" y="400" as="targetPoint" />
            <Array as="points">
              <mxPoint x="760" y="425" />
              <mxPoint x="340" y="425" />
            </Array>
          </mxGeometry>
        </mxCell>

        <mxCell id="response2" value="" style="endArrow=classic;html=1;exitX=0;exitY=0.75;exitDx=0;exitDy=0;entryX=1;entryY=0.75;entryDx=0;entryDy=0;strokeColor=#00cc00;strokeWidth=2;dashed=1;" edge="1" parent="1" source="gateway" target="client">
          <mxGeometry width="50" height="50" relative="1" as="geometry" />
        </mxCell>

        <!-- Labels -->
        <mxCell id="label1" value="1. Request" style="text;html=1;strokeColor=none;fillColor=none;align=center;verticalAlign=middle;whiteSpace=wrap;rounded=0;" vertex="1" parent="1">
          <mxGeometry x="170" y="350" width="60" height="20" as="geometry" />
        </mxCell>

        <mxCell id="label2" value="2. Auth" style="text;html=1;strokeColor=none;fillColor=none;align=center;verticalAlign=middle;whiteSpace=wrap;rounded=0;" vertex="1" parent="1">
          <mxGeometry x="350" y="350" width="60" height="20" as="geometry" />
        </mxCell>

        <mxCell id="label3" value="3. Route" style="text;html=1;strokeColor=none;fillColor=none;align=center;verticalAlign=middle;whiteSpace=wrap;rounded=0;" vertex="1" parent="1">
          <mxGeometry x="530" y="350" width="60" height="20" as="geometry" />
        </mxCell>

        <mxCell id="label4" value="4. Process" style="text;html=1;strokeColor=none;fillColor=none;align=center;verticalAlign=middle;whiteSpace=wrap;rounded=0;" vertex="1" parent="1">
          <mxGeometry x="700" y="350" width="60" height="20" as="geometry" />
        </mxCell>

        <mxCell id="label5" value="5. API Call" style="text;html=1;strokeColor=none;fillColor=none;align=center;verticalAlign=middle;whiteSpace=wrap;rounded=0;" vertex="1" parent="1">
          <mxGeometry x="870" y="350" width="60" height="20" as="geometry" />
        </mxCell>

        <!-- Title -->
        <mxCell id="title" value="AI Chatbot System - Message Flow Architecture" style="text;html=1;strokeColor=none;fillColor=none;align=center;verticalAlign=middle;whiteSpace=wrap;rounded=0;fontSize=16;fontStyle=1" vertex="1" parent="1">
          <mxGeometry x="400" y="100" width="400" height="40" as="geometry" />
        </mxCell>

        <!-- Legend -->
        <mxCell id="legend" value="Legend:" style="text;html=1;strokeColor=none;fillColor=none;align=left;verticalAlign=top;whiteSpace=wrap;rounded=0;fontStyle=1" vertex="1" parent="1">
          <mxGeometry x="40" y="600" width="60" height="20" as="geometry" />
        </mxCell>

        <mxCell id="legend1" value="→ Request Flow" style="text;html=1;strokeColor=none;fillColor=none;align=left;verticalAlign=middle;whiteSpace=wrap;rounded=0;" vertex="1" parent="1">
          <mxGeometry x="40" y="620" width="100" height="20" as="geometry" />
        </mxCell>

        <mxCell id="legend2" value="⟶ Response Flow" style="text;html=1;strokeColor=none;fillColor=none;align=left;verticalAlign=middle;whiteSpace=wrap;rounded=0;fontColor=#00cc00;" vertex="1" parent="1">
          <mxGeometry x="40" y="640" width="100" height="20" as="geometry" />
        </mxCell>

        <mxCell id="legend3" value="⟷ Bidirectional" style="text;html=1;strokeColor=none;fillColor=none;align=left;verticalAlign=middle;whiteSpace=wrap;rounded=0;" vertex="1" parent="1">
          <mxGeometry x="40" y="660" width="100" height="20" as="geometry" />
        </mxCell>

      </root>
    </mxGraphModel>
  </diagram>
</mxfile>
